<svg xmlns="http://www.w3.org/2000/svg" xmlns:xlink="http://www.w3.org/1999/xlink" viewBox="0 0 135.08 135.82"><defs><style>.cls-1{fill:url(#Dégradé_sans_nom_46);}.cls-2{fill:url(#Dégradé_sans_nom_45);}</style><linearGradient id="Dégradé_sans_nom_46" y1="67.91" x2="135.08" y2="67.91" gradientUnits="userSpaceOnUse"><stop offset="0" stop-color="#1572ff"/><stop offset="1" stop-color="#3fff9c"/></linearGradient><linearGradient id="Dégradé_sans_nom_45" x1="33.39" y1="67.91" x2="101.69" y2="67.91" gradientUnits="userSpaceOnUse"><stop offset="0" stop-color="#fff"/><stop offset="1" stop-color="#fff"/></linearGradient></defs><g id="Calque_2" data-name="Calque 2"><g id="Calque_1-2" data-name="Calque 1"><path class="cls-1" d="M.15,58.52A56.57,56.57,0,0,1,3.58,42.63,62.35,62.35,0,0,1,26.14,13.22,69.41,69.41,0,0,1,66.3,0,69.61,69.61,0,0,1,88.73,3.18c14.09,4.41,25.78,12.31,34.56,24.25a58.69,58.69,0,0,1,11.53,41.22,57.1,57.1,0,0,1-3.93,16.22,62.69,62.69,0,0,1-20,26.35,2.24,2.24,0,0,0-1,2c0,7.19,0,14.38,0,21.57a2.82,2.82,0,0,1-.08,1,1.92,1.92,0,0,1-.87-.38q-10.68-5.88-21.35-11.79a1.78,1.78,0,0,0-1.46-.18,72.32,72.32,0,0,1-24.6,2.18,70.36,70.36,0,0,1-14.82-2.79,66.56,66.56,0,0,1-32.85-21.68A59,59,0,0,1,.15,58.52Z"/><path class="cls-2" d="M101.45,37.39c.66,5,.07,9.76-3.1,14a2.23,2.23,0,0,1-3,.92,19.76,19.76,0,0,0-9.49-.55,28.78,28.78,0,0,1,9.74,3.85,64,64,0,0,1-14,6c-.78.23-1.77-.24-2.66-.4a18.75,18.75,0,0,0-9,.4,18.34,18.34,0,0,1,8,2.28c-2.54,1.76-4.71,3.59-7.94,3.71a17.29,17.29,0,0,0-8.82,3.22c2.65.63,5-1,7.82.19-5,3-8.23,7.6-14,9.14C47.16,82.2,42.15,88,38.08,94.6a12.41,12.41,0,0,0-1.22,2.23,3.8,3.8,0,0,1-3.47,2.67c.4-2.44,1.91-4.37,3.07-6.44C40.22,86.28,44.16,79.6,48,72.85A90.85,90.85,0,0,1,69.9,46.41a45.7,45.7,0,0,1,13.66-8c3.09-1.05,6.17-2.48,9.61-2a58.53,58.53,0,0,0-10.79,4.42A72.35,72.35,0,0,0,58.1,62.47a5.92,5.92,0,0,0-1.57,2.12,2.94,2.94,0,0,0,2.24-1.71.16.16,0,0,0,.15-.17l.1,0,0-.08.38-.45.28-.39a71.82,71.82,0,0,1,8.09-7.6A107.25,107.25,0,0,1,82,44.19a129.11,129.11,0,0,1,14.5-6.78c1.17-.3,2.37-.54,3.52-.92C100.91,36.19,101.29,36.54,101.45,37.39Z"/></g></g></svg>